<?xml version="1.0" standalone="no"?>
<!DOCTYPE svg PUBLIC "-//W3C//DTD SVG 20010904//EN"
 "http://www.w3.org/TR/2001/REC-SVG-20010904/DTD/svg10.dtd">
<svg version="1.0" xmlns="http://www.w3.org/2000/svg"
 width="400.000000pt" height="400.000000pt" viewBox="0 0 400.000000 400.000000"
 preserveAspectRatio="xMidYMid meet">
<metadata>
Created by potrace 1.11, written by Peter Selinger 2001-2013
</metadata>
<g transform="translate(0.000000,400.000000) scale(0.100000,-0.100000)"
fill="#000000" stroke="none">
<path d="M1815 3930 c-121 -32 -188 -66 -625 -320 -107 -62 -269 -156 -360
-208 -214 -122 -289 -172 -367 -245 -77 -72 -168 -215 -199 -312 -43 -135 -46
-193 -42 -880 l4 -650 25 -87 c30 -101 101 -225 177 -309 88 -96 142 -132 562
-374 113 -65 290 -168 393 -228 328 -190 428 -227 617 -227 201 0 274 29 725
290 165 95 363 209 440 253 308 176 409 259 502 414 110 185 113 211 113 971
0 627 -3 695 -40 822 -23 77 -113 226 -178 293 -86 89 -145 128 -537 354 -104
60 -282 162 -393 227 -346 200 -443 236 -636 235 -74 0 -134 -6 -181 -19z
m265 -1335 l0 -55 -200 0 -200 0 0 -650 0 -650 -60 0 -60 0 -2 648 -3 647
-207 3 -208 2 0 55 0 55 470 0 470 0 0 -55z m800 0 l0 -55 -327 -2 -328 -3 0
-280 0 -280 243 -3 242 -2 0 -55 0 -55 -245 0 -245 0 0 -310 0 -310 -60 0 -60
0 0 705 0 705 390 0 390 0 0 -55z"/>
</g>
</svg>
